<mxfile host="app.diagrams.net" modified="2021-10-06T20:41:21.366Z" agent="5.0 (Windows)" etag="jrFtsJh97TIGAfGkKBgw" version="15.4.3" type="github">
  <diagram id="m_BbS3otMrVcHqlcPrgL" name="Page-1">
    <mxGraphModel dx="1102" dy="582" grid="1" gridSize="10" guides="1" tooltips="1" connect="1" arrows="1" fold="1" page="1" pageScale="1" pageWidth="850" pageHeight="1100" background="#114B5F" math="0" shadow="0">
      <root>
        <mxCell id="0" />
        <mxCell id="1" parent="0" />
        <mxCell id="1xIDlhuD8FW9p0ByaJr1-2" value="FeedBackNotification" style="swimlane;fontStyle=0;childLayout=stackLayout;horizontal=1;startSize=26;horizontalStack=0;resizeParent=1;resizeParentMax=0;resizeLast=0;collapsible=1;marginBottom=0;rounded=1;fillColor=#fff2cc;strokeColor=#d6b656;" vertex="1" parent="1">
          <mxGeometry x="100" y="780" width="160" height="156" as="geometry" />
        </mxCell>
        <mxCell id="1xIDlhuD8FW9p0ByaJr1-3" value="+ id: int" style="text;strokeColor=none;fillColor=none;align=left;verticalAlign=top;spacingLeft=4;spacingRight=4;overflow=hidden;rotatable=0;points=[[0,0.5],[1,0.5]];portConstraint=eastwest;rounded=1;fontColor=#E4FDE1;" vertex="1" parent="1xIDlhuD8FW9p0ByaJr1-2">
          <mxGeometry y="26" width="160" height="26" as="geometry" />
        </mxCell>
        <mxCell id="1xIDlhuD8FW9p0ByaJr1-4" value="+ read:bool" style="text;strokeColor=none;fillColor=none;align=left;verticalAlign=top;spacingLeft=4;spacingRight=4;overflow=hidden;rotatable=0;points=[[0,0.5],[1,0.5]];portConstraint=eastwest;rounded=1;fontColor=#E4FDE1;" vertex="1" parent="1xIDlhuD8FW9p0ByaJr1-2">
          <mxGeometry y="52" width="160" height="26" as="geometry" />
        </mxCell>
        <mxCell id="1xIDlhuD8FW9p0ByaJr1-5" value="+ message: string&#xa;" style="text;strokeColor=none;fillColor=none;align=left;verticalAlign=top;spacingLeft=4;spacingRight=4;overflow=hidden;rotatable=0;points=[[0,0.5],[1,0.5]];portConstraint=eastwest;rounded=1;fontColor=#E4FDE1;" vertex="1" parent="1xIDlhuD8FW9p0ByaJr1-2">
          <mxGeometry y="78" width="160" height="26" as="geometry" />
        </mxCell>
        <mxCell id="1xIDlhuD8FW9p0ByaJr1-6" value="+ sent:date" style="text;strokeColor=none;fillColor=none;align=left;verticalAlign=top;spacingLeft=4;spacingRight=4;overflow=hidden;rotatable=0;points=[[0,0.5],[1,0.5]];portConstraint=eastwest;rounded=1;fontColor=#E4FDE1;" vertex="1" parent="1xIDlhuD8FW9p0ByaJr1-2">
          <mxGeometry y="104" width="160" height="26" as="geometry" />
        </mxCell>
        <mxCell id="1xIDlhuD8FW9p0ByaJr1-7" value="+ userID:string" style="text;strokeColor=none;fillColor=none;align=left;verticalAlign=top;spacingLeft=4;spacingRight=4;overflow=hidden;rotatable=0;points=[[0,0.5],[1,0.5]];portConstraint=eastwest;rounded=1;fontColor=#E4FDE1;" vertex="1" parent="1xIDlhuD8FW9p0ByaJr1-2">
          <mxGeometry y="130" width="160" height="26" as="geometry" />
        </mxCell>
        <mxCell id="1xIDlhuD8FW9p0ByaJr1-13" style="edgeStyle=orthogonalEdgeStyle;orthogonalLoop=1;jettySize=auto;html=1;entryX=1;entryY=0.5;entryDx=0;entryDy=0;strokeColor=#028090;fontColor=#E4FDE1;labelBackgroundColor=#114B5F;" edge="1" parent="1" source="1xIDlhuD8FW9p0ByaJr1-8" target="1xIDlhuD8FW9p0ByaJr1-18">
          <mxGeometry relative="1" as="geometry">
            <mxPoint x="450" y="470" as="targetPoint" />
            <Array as="points">
              <mxPoint x="528" y="440" />
              <mxPoint x="528" y="460" />
            </Array>
          </mxGeometry>
        </mxCell>
        <mxCell id="1xIDlhuD8FW9p0ByaJr1-14" value="Feedback" style="edgeLabel;html=1;align=center;verticalAlign=middle;resizable=0;points=[];rounded=1;fontColor=#E4FDE1;labelBackgroundColor=#114B5F;" vertex="1" connectable="0" parent="1xIDlhuD8FW9p0ByaJr1-13">
          <mxGeometry x="-0.3778" y="3" relative="1" as="geometry">
            <mxPoint x="10" y="-2" as="offset" />
          </mxGeometry>
        </mxCell>
        <mxCell id="1xIDlhuD8FW9p0ByaJr1-8" value="" style="points=[];aspect=fixed;html=1;align=center;shadow=0;dashed=0;image;image=img/lib/allied_telesis/computer_and_terminals/Personal_Computer.svg;rounded=1;fillColor=#F45B69;strokeColor=#028090;fontColor=#E4FDE1;labelBackgroundColor=#114B5F;" vertex="1" parent="1">
          <mxGeometry x="630" y="390" width="75.6" height="102.46" as="geometry" />
        </mxCell>
        <mxCell id="1xIDlhuD8FW9p0ByaJr1-16" value="" style="image;html=1;image=img/lib/clip_art/computers/Database_128x128.png;rounded=1;fillColor=#F45B69;strokeColor=#028090;fontColor=#E4FDE1;labelBackgroundColor=#114B5F;" vertex="1" parent="1">
          <mxGeometry x="120" y="420" width="80" height="80" as="geometry" />
        </mxCell>
        <mxCell id="1xIDlhuD8FW9p0ByaJr1-19" style="edgeStyle=orthogonalEdgeStyle;orthogonalLoop=1;jettySize=auto;html=1;strokeColor=#028090;fontColor=#E4FDE1;labelBackgroundColor=#114B5F;" edge="1" parent="1" source="1xIDlhuD8FW9p0ByaJr1-18" target="1xIDlhuD8FW9p0ByaJr1-16">
          <mxGeometry relative="1" as="geometry" />
        </mxCell>
        <mxCell id="1xIDlhuD8FW9p0ByaJr1-21" value="Create Notificaton" style="edgeLabel;html=1;align=center;verticalAlign=middle;resizable=0;points=[];rounded=1;fontColor=#E4FDE1;labelBackgroundColor=#114B5F;" vertex="1" connectable="0" parent="1xIDlhuD8FW9p0ByaJr1-19">
          <mxGeometry x="-0.36" y="1" relative="1" as="geometry">
            <mxPoint x="-12" y="-1" as="offset" />
          </mxGeometry>
        </mxCell>
        <mxCell id="1xIDlhuD8FW9p0ByaJr1-18" value="" style="image;html=1;image=img/lib/clip_art/networking/Cloud_Server_128x128.png;rounded=1;fillColor=#F45B69;strokeColor=#028090;fontColor=#E4FDE1;labelBackgroundColor=#114B5F;" vertex="1" parent="1">
          <mxGeometry x="350" y="420" width="80" height="80" as="geometry" />
        </mxCell>
        <mxCell id="1xIDlhuD8FW9p0ByaJr1-22" value="Server" style="text;html=1;align=center;verticalAlign=middle;resizable=0;points=[];autosize=1;strokeColor=none;fillColor=none;rounded=1;fontColor=#E4FDE1;" vertex="1" parent="1">
          <mxGeometry x="365" y="492.46" width="50" height="20" as="geometry" />
        </mxCell>
        <mxCell id="1xIDlhuD8FW9p0ByaJr1-23" value="Database" style="text;html=1;align=center;verticalAlign=middle;resizable=0;points=[];autosize=1;strokeColor=none;fillColor=none;rounded=1;fontColor=#E4FDE1;" vertex="1" parent="1">
          <mxGeometry x="125" y="510" width="70" height="20" as="geometry" />
        </mxCell>
        <mxCell id="1xIDlhuD8FW9p0ByaJr1-24" value="" style="verticalLabelPosition=bottom;html=1;verticalAlign=top;strokeWidth=1;align=center;outlineConnect=0;dashed=0;outlineConnect=0;shape=mxgraph.aws3d.end_user;strokeColor=none;aspect=fixed;rounded=1;fillColor=#F45B69;fontColor=#E4FDE1;" vertex="1" parent="1">
          <mxGeometry x="655.4899999999999" y="410" width="24.61" height="50.46" as="geometry" />
        </mxCell>
        <mxCell id="1xIDlhuD8FW9p0ByaJr1-26" value="ApproveRequestNotification" style="swimlane;fontStyle=0;childLayout=stackLayout;horizontal=1;startSize=50;horizontalStack=0;resizeParent=1;resizeParentMax=0;resizeLast=0;collapsible=1;marginBottom=0;rounded=1;fillColor=#fff2cc;strokeColor=#d6b656;" vertex="1" parent="1">
          <mxGeometry x="320" y="790" width="190" height="180" as="geometry" />
        </mxCell>
        <mxCell id="1xIDlhuD8FW9p0ByaJr1-27" value="+ id: int" style="text;strokeColor=none;fillColor=none;align=left;verticalAlign=top;spacingLeft=4;spacingRight=4;overflow=hidden;rotatable=0;points=[[0,0.5],[1,0.5]];portConstraint=eastwest;rounded=1;fontColor=#E4FDE1;" vertex="1" parent="1xIDlhuD8FW9p0ByaJr1-26">
          <mxGeometry y="50" width="190" height="26" as="geometry" />
        </mxCell>
        <mxCell id="1xIDlhuD8FW9p0ByaJr1-28" value="+ read: bool" style="text;strokeColor=none;fillColor=none;align=left;verticalAlign=top;spacingLeft=4;spacingRight=4;overflow=hidden;rotatable=0;points=[[0,0.5],[1,0.5]];portConstraint=eastwest;rounded=1;fontColor=#E4FDE1;" vertex="1" parent="1xIDlhuD8FW9p0ByaJr1-26">
          <mxGeometry y="76" width="190" height="26" as="geometry" />
        </mxCell>
        <mxCell id="1xIDlhuD8FW9p0ByaJr1-29" value="+ message: string" style="text;strokeColor=none;fillColor=none;align=left;verticalAlign=top;spacingLeft=4;spacingRight=4;overflow=hidden;rotatable=0;points=[[0,0.5],[1,0.5]];portConstraint=eastwest;rounded=1;fontColor=#E4FDE1;" vertex="1" parent="1xIDlhuD8FW9p0ByaJr1-26">
          <mxGeometry y="102" width="190" height="26" as="geometry" />
        </mxCell>
        <mxCell id="1xIDlhuD8FW9p0ByaJr1-30" value="+ sent: date" style="text;strokeColor=none;fillColor=none;align=left;verticalAlign=top;spacingLeft=4;spacingRight=4;overflow=hidden;rotatable=0;points=[[0,0.5],[1,0.5]];portConstraint=eastwest;rounded=1;fontColor=#E4FDE1;" vertex="1" parent="1xIDlhuD8FW9p0ByaJr1-26">
          <mxGeometry y="128" width="190" height="26" as="geometry" />
        </mxCell>
        <mxCell id="1xIDlhuD8FW9p0ByaJr1-31" value="+ userID: string" style="text;strokeColor=none;fillColor=none;align=left;verticalAlign=top;spacingLeft=4;spacingRight=4;overflow=hidden;rotatable=0;points=[[0,0.5],[1,0.5]];portConstraint=eastwest;rounded=1;fontColor=#E4FDE1;" vertex="1" parent="1xIDlhuD8FW9p0ByaJr1-26">
          <mxGeometry y="154" width="190" height="26" as="geometry" />
        </mxCell>
        <mxCell id="1xIDlhuD8FW9p0ByaJr1-32" value="ManualNotification" style="swimlane;fontStyle=0;childLayout=stackLayout;horizontal=1;startSize=26;fillColor=none;horizontalStack=0;resizeParent=1;resizeParentMax=0;resizeLast=0;collapsible=1;marginBottom=0;rounded=0;sketch=0;fontColor=#E4FDE1;strokeColor=#028090;" vertex="1" parent="1">
          <mxGeometry x="565.6" y="806" width="140" height="182" as="geometry" />
        </mxCell>
        <mxCell id="1xIDlhuD8FW9p0ByaJr1-33" value="+ id: int" style="text;strokeColor=none;fillColor=none;align=left;verticalAlign=top;spacingLeft=4;spacingRight=4;overflow=hidden;rotatable=0;points=[[0,0.5],[1,0.5]];portConstraint=eastwest;rounded=0;sketch=0;fontColor=#E4FDE1;" vertex="1" parent="1xIDlhuD8FW9p0ByaJr1-32">
          <mxGeometry y="26" width="140" height="26" as="geometry" />
        </mxCell>
        <mxCell id="1xIDlhuD8FW9p0ByaJr1-34" value="+ read: bool" style="text;strokeColor=none;fillColor=none;align=left;verticalAlign=top;spacingLeft=4;spacingRight=4;overflow=hidden;rotatable=0;points=[[0,0.5],[1,0.5]];portConstraint=eastwest;rounded=0;sketch=0;fontColor=#E4FDE1;" vertex="1" parent="1xIDlhuD8FW9p0ByaJr1-32">
          <mxGeometry y="52" width="140" height="26" as="geometry" />
        </mxCell>
        <mxCell id="1xIDlhuD8FW9p0ByaJr1-35" value="+ message: string" style="text;strokeColor=none;fillColor=none;align=left;verticalAlign=top;spacingLeft=4;spacingRight=4;overflow=hidden;rotatable=0;points=[[0,0.5],[1,0.5]];portConstraint=eastwest;rounded=0;sketch=0;fontColor=#E4FDE1;" vertex="1" parent="1xIDlhuD8FW9p0ByaJr1-32">
          <mxGeometry y="78" width="140" height="26" as="geometry" />
        </mxCell>
        <mxCell id="1xIDlhuD8FW9p0ByaJr1-36" value="+ sent: date" style="text;strokeColor=none;fillColor=none;align=left;verticalAlign=top;spacingLeft=4;spacingRight=4;overflow=hidden;rotatable=0;points=[[0,0.5],[1,0.5]];portConstraint=eastwest;rounded=0;sketch=0;fontColor=#E4FDE1;" vertex="1" parent="1xIDlhuD8FW9p0ByaJr1-32">
          <mxGeometry y="104" width="140" height="26" as="geometry" />
        </mxCell>
        <mxCell id="1xIDlhuD8FW9p0ByaJr1-38" value="+ choice: string" style="text;strokeColor=none;fillColor=none;align=left;verticalAlign=top;spacingLeft=4;spacingRight=4;overflow=hidden;rotatable=0;points=[[0,0.5],[1,0.5]];portConstraint=eastwest;rounded=0;sketch=0;fontColor=#E4FDE1;" vertex="1" parent="1xIDlhuD8FW9p0ByaJr1-32">
          <mxGeometry y="130" width="140" height="26" as="geometry" />
        </mxCell>
        <mxCell id="1xIDlhuD8FW9p0ByaJr1-37" value="+ userID: string" style="text;strokeColor=none;fillColor=none;align=left;verticalAlign=top;spacingLeft=4;spacingRight=4;overflow=hidden;rotatable=0;points=[[0,0.5],[1,0.5]];portConstraint=eastwest;rounded=0;sketch=0;fontColor=#E4FDE1;" vertex="1" parent="1xIDlhuD8FW9p0ByaJr1-32">
          <mxGeometry y="156" width="140" height="26" as="geometry" />
        </mxCell>
      </root>
    </mxGraphModel>
  </diagram>
</mxfile>
